<svg width="20" height="20" viewBox="0 0 20 20" fill="none" xmlns="http://www.w3.org/2000/svg">
<path d="M17.0961 10.2211L11.4711 15.8461C11.4125 15.9047 11.3329 15.9377 11.25 15.9377C11.1671 15.9377 11.0875 15.9047 11.0289 15.8461C10.9703 15.7875 10.9373 15.7079 10.9373 15.625C10.9373 15.5421 10.9703 15.4625 11.0289 15.4039L16.1203 10.3125H3.125C3.04212 10.3125 2.96263 10.2796 2.90403 10.221C2.84542 10.1624 2.8125 10.0829 2.8125 10C2.8125 9.91712 2.84542 9.83763 2.90403 9.77903C2.96263 9.72042 3.04212 9.6875 3.125 9.6875H16.1203L11.0289 4.59609C10.9703 4.53745 10.9373 4.45792 10.9373 4.375C10.9373 4.29207 10.9703 4.21254 11.0289 4.1539C11.0875 4.09527 11.1671 4.06232 11.25 4.06232C11.3329 4.06232 11.4125 4.09527 11.4711 4.1539L17.0961 9.7789C17.1251 9.80793 17.1482 9.84239 17.1639 9.88033C17.1797 9.91827 17.1877 9.95893 17.1877 10C17.1877 10.0411 17.1797 10.0817 17.1639 10.1197C17.1482 10.1576 17.1251 10.1921 17.0961 10.2211Z" fill="#8635FD"/>
</svg>
