<svg width="48" height="48" viewBox="0 0 48 48" fill="none" xmlns="http://www.w3.org/2000/svg">
<path d="M34.0611 25.0612L19.0611 40.0612C18.9217 40.2006 18.7563 40.3111 18.5742 40.3866C18.3921 40.462 18.1969 40.5008 17.9999 40.5008C17.8028 40.5008 17.6076 40.462 17.4255 40.3866C17.2434 40.3111 17.078 40.2006 16.9386 40.0612C16.7992 39.9219 16.6887 39.7564 16.6133 39.5743C16.5378 39.3922 16.499 39.1971 16.499 39C16.499 38.8029 16.5378 38.6077 16.6133 38.4256C16.6887 38.2435 16.7992 38.0781 16.9386 37.9387L30.8792 24L16.9386 10.0612C16.6571 9.77977 16.499 9.39803 16.499 8.99998C16.499 8.60193 16.6571 8.22019 16.9386 7.93873C17.2201 7.65727 17.6018 7.49915 17.9999 7.49915C18.3979 7.49915 18.7796 7.65727 19.0611 7.93873L34.0611 22.9387C34.2006 23.078 34.3112 23.2435 34.3867 23.4256C34.4622 23.6077 34.501 23.8029 34.501 24C34.501 24.1971 34.4622 24.3923 34.3867 24.5744C34.3112 24.7565 34.2006 24.9219 34.0611 25.0612Z" fill="#000022"/>
</svg>
