<svg width="48" height="48" viewBox="0 0 48 48" fill="none" xmlns="http://www.w3.org/2000/svg">
<path d="M13.9389 22.9388L28.9389 7.93877C29.0783 7.7994 29.2437 7.68885 29.4258 7.61343C29.6079 7.53801 29.8031 7.49918 30.0001 7.49918C30.1972 7.49918 30.3924 7.53801 30.5745 7.61343C30.7566 7.68885 30.922 7.7994 31.0614 7.93877C31.2008 8.07813 31.3113 8.24358 31.3867 8.42567C31.4622 8.60776 31.501 8.80293 31.501 9.00002C31.501 9.19711 31.4622 9.39227 31.3867 9.57436C31.3113 9.75645 31.2008 9.9219 31.0614 10.0613L17.1208 24L31.0614 37.9388C31.3429 38.2202 31.501 38.602 31.501 39C31.501 39.3981 31.3429 39.7798 31.0614 40.0613C30.7799 40.3427 30.3982 40.5009 30.0001 40.5009C29.6021 40.5009 29.2204 40.3427 28.9389 40.0613L13.9389 25.0613C13.7994 24.922 13.6888 24.7565 13.6133 24.5744C13.5378 24.3923 13.499 24.1971 13.499 24C13.499 23.8029 13.5378 23.6077 13.6133 23.4256C13.6888 23.2435 13.7994 23.0781 13.9389 22.9388Z" fill="#000022"/>
</svg>
