<svg width="40" height="40" viewBox="0 0 40 40" fill="none" xmlns="http://www.w3.org/2000/svg">
<path d="M33.7168 18.4641C33.6694 18.2637 33.5733 18.0782 33.4371 17.9239C33.3008 17.7696 33.1285 17.6514 32.9355 17.5797L23.9339 14.2032L26.2246 2.74534C26.2764 2.47912 26.2403 2.20326 26.1216 1.95937C26.003 1.71549 25.8082 1.51682 25.5667 1.39334C25.3252 1.26986 25.0501 1.22828 24.7829 1.27486C24.5157 1.32145 24.271 1.45367 24.0855 1.65159L6.5855 20.4016C6.44337 20.5514 6.34055 20.734 6.28622 20.9332C6.2319 21.1324 6.22777 21.342 6.2742 21.5431C6.32063 21.7443 6.41617 21.9309 6.55229 22.0861C6.68841 22.2414 6.86086 22.3605 7.05425 22.4328L16.0589 25.8094L13.7746 37.2547C13.7227 37.5209 13.7588 37.7968 13.8775 38.0407C13.9962 38.2846 14.1909 38.4832 14.4324 38.6067C14.6739 38.7302 14.949 38.7718 15.2162 38.7252C15.4834 38.6786 15.7282 38.5464 15.9136 38.3485L33.4136 19.5985C33.5532 19.4487 33.6538 19.2669 33.7067 19.0691C33.7595 18.8713 33.763 18.6635 33.7168 18.4641ZM17.0886 33.4375L18.7246 25.2532C18.7831 24.9629 18.7367 24.6613 18.5936 24.402C18.4506 24.1428 18.2201 23.9427 17.9433 23.8375L9.68706 20.736L22.9089 6.57034L21.2746 14.7547C21.216 15.045 21.2624 15.3466 21.4055 15.6059C21.5486 15.8651 21.779 16.0651 22.0558 16.1703L30.3058 19.2641L17.0886 33.4375Z" fill="#8635FD"/>
</svg>
